{
	"asset":{
		"generator":"Khronos glTF Blender I/O v4.0.44",
		"version":"2.0"
	},
	"scene":0,
	"scenes":[
		{
			"name":"Scene",
			"nodes":[
				0,
				1,
				2
			]
		}
	],
	"nodes":[
		{
			"mesh":0,
			"name":"Peasant.001"
		},
		{
			"mesh":1,
			"name":"Horse",
			"translation":[
				-2,
				0,
				0
			]
		},
		{
			"mesh":2,
			"name":"Tower.001",
			"translation":[
				-1,
				0,
				0
			]
		}
	],
	"meshes":[
		{
			"name":"Peasant",
			"primitives":[
				{
					"attributes":{
						"POSITION":0,
						"NORMAL":1,
						"TEXCOORD_0":2
					},
					"indices":3
				}
			]
		},
		{
			"name":"Horse",
			"primitives":[
				{
					"attributes":{
						"POSITION":4,
						"NORMAL":5,
						"TEXCOORD_0":6
					},
					"indices":7
				}
			]
		},
		{
			"name":"Tower",
			"primitives":[
				{
					"attributes":{
						"POSITION":8,
						"NORMAL":9,
						"TEXCOORD_0":10
					},
					"indices":11
				}
			]
		}
	],
	"accessors":[
		{
			"bufferView":0,
			"componentType":5126,
			"count":1348,
			"max":[
				0.4399999976158142,
				1.3400003910064697,
				0.4399999976158142
			],
			"min":[
				-0.4399999976158142,
				-0.0058278171345591545,
				-0.4399999976158142
			],
			"type":"VEC3"
		},
		{
			"bufferView":1,
			"componentType":5126,
			"count":1348,
			"type":"VEC3"
		},
		{
			"bufferView":2,
			"componentType":5126,
			"count":1348,
			"type":"VEC2"
		},
		{
			"bufferView":3,
			"componentType":5123,
			"count":6222,
			"type":"SCALAR"
		},
		{
			"bufferView":4,
			"componentType":5126,
			"count":644,
			"max":[
				0.4399999976158142,
				1.2077445983886719,
				0.4399999976158142
			],
			"min":[
				-0.4399999976158142,
				-0.0058278171345591545,
				-0.4399999976158142
			],
			"type":"VEC3"
		},
		{
			"bufferView":5,
			"componentType":5126,
			"count":644,
			"type":"VEC3"
		},
		{
			"bufferView":6,
			"componentType":5126,
			"count":644,
			"type":"VEC2"
		},
		{
			"bufferView":7,
			"componentType":5123,
			"count":1842,
			"type":"SCALAR"
		},
		{
			"bufferView":8,
			"componentType":5126,
			"count":1210,
			"max":[
				0.4399999976158142,
				1.208799958229065,
				0.4399999976158142
			],
			"min":[
				-0.4399999976158142,
				-0.0058278171345591545,
				-0.4399999976158142
			],
			"type":"VEC3"
		},
		{
			"bufferView":9,
			"componentType":5126,
			"count":1210,
			"type":"VEC3"
		},
		{
			"bufferView":10,
			"componentType":5126,
			"count":1210,
			"type":"VEC2"
		},
		{
			"bufferView":11,
			"componentType":5123,
			"count":4494,
			"type":"SCALAR"
		}
	],
	"bufferViews":[
		{
			"buffer":0,
			"byteLength":16176,
			"byteOffset":0,
			"target":34962
		},
		{
			"buffer":0,
			"byteLength":16176,
			"byteOffset":16176,
			"target":34962
		},
		{
			"buffer":0,
			"byteLength":10784,
			"byteOffset":32352,
			"target":34962
		},
		{
			"buffer":0,
			"byteLength":12444,
			"byteOffset":43136,
			"target":34963
		},
		{
			"buffer":0,
			"byteLength":7728,
			"byteOffset":55580,
			"target":34962
		},
		{
			"buffer":0,
			"byteLength":7728,
			"byteOffset":63308,
			"target":34962
		},
		{
			"buffer":0,
			"byteLength":5152,
			"byteOffset":71036,
			"target":34962
		},
		{
			"buffer":0,
			"byteLength":3684,
			"byteOffset":76188,
			"target":34963
		},
		{
			"buffer":0,
			"byteLength":14520,
			"byteOffset":79872,
			"target":34962
		},
		{
			"buffer":0,
			"byteLength":14520,
			"byteOffset":94392,
			"target":34962
		},
		{
			"buffer":0,
			"byteLength":9680,
			"byteOffset":108912,
			"target":34962
		},
		{
			"buffer":0,
			"byteLength":8988,
			"byteOffset":118592,
			"target":34963
		}
	],
	"buffers":[
		{
			"byteLength":127580,
			"uri":"chess.bin"
		}
	]
}
