{
	"asset":{
		"generator":"Khronos glTF Blender I/O v4.0.44",
		"version":"2.0"
	},
	"scene":0,
	"scenes":[
		{
			"name":"Scene",
			"nodes":[
				0
			]
		}
	],
	"nodes":[
		{
			"mesh":0,
			"name":"Plane"
		}
	],
	"materials":[
		{
			"doubleSided":true,
			"name":"Material",
			"pbrMetallicRoughness":{
				"baseColorTexture":{
					"index":0
				},
				"metallicFactor":0,
				"roughnessFactor":0.5
			}
		}
	],
	"meshes":[
		{
			"name":"Plane",
			"primitives":[
				{
					"attributes":{
						"POSITION":0,
						"NORMAL":1,
						"TEXCOORD_0":2
					},
					"indices":3,
					"material":0
				}
			]
		}
	],
	"textures":[
		{
			"sampler":0,
			"source":0
		}
	],
	"images":[
		{
			"mimeType":"image/png",
			"name":"Untitled",
			"uri":"Untitled.png"
		}
	],
	"accessors":[
		{
			"bufferView":0,
			"componentType":5126,
			"count":9736,
			"max":[
				0.5,
				0.016473982483148575,
				0.4999999701976776
			],
			"min":[
				-0.5,
				0.006323071196675301,
				-0.5
			],
			"type":"VEC3"
		},
		{
			"bufferView":1,
			"componentType":5126,
			"count":9736,
			"type":"VEC3"
		},
		{
			"bufferView":2,
			"componentType":5126,
			"count":9736,
			"type":"VEC2"
		},
		{
			"bufferView":3,
			"componentType":5123,
			"count":47928,
			"type":"SCALAR"
		}
	],
	"bufferViews":[
		{
			"buffer":0,
			"byteLength":116832,
			"byteOffset":0,
			"target":34962
		},
		{
			"buffer":0,
			"byteLength":116832,
			"byteOffset":116832,
			"target":34962
		},
		{
			"buffer":0,
			"byteLength":77888,
			"byteOffset":233664,
			"target":34962
		},
		{
			"buffer":0,
			"byteLength":95856,
			"byteOffset":311552,
			"target":34963
		}
	],
	"samplers":[
		{
			"magFilter":9729,
			"minFilter":9987
		}
	],
	"buffers":[
		{
			"byteLength":407408,
			"uri":"floor.bin"
		}
	]
}
